<svg width="14" height="14" viewBox="0 0 14 14" fill="none" xmlns="http://www.w3.org/2000/svg">
<path d="M13.7667 12.6625L11.123 10.0274C11.9768 8.94215 12.441 7.60134 12.4409 6.22046C12.4409 4.99017 12.0761 3.78751 11.3926 2.76456C10.7091 1.74161 9.73757 0.944319 8.60093 0.473507C7.46429 0.00269521 6.21356 -0.120491 5.00691 0.119527C3.80026 0.359545 2.69188 0.951987 1.82193 1.82193C0.951987 2.69188 0.359545 3.80026 0.119527 5.00691C-0.120491 6.21356 0.00269535 7.46429 0.473507 8.60093C0.944319 9.73757 1.74161 10.7091 2.76456 11.3926C3.78751 12.0761 4.99017 12.4409 6.22046 12.4409C7.60185 12.443 8.94381 11.9805 10.0305 11.1276L12.6656 13.7713C12.8121 13.9177 13.0106 14 13.2177 14C13.4248 14 13.6234 13.9177 13.7698 13.7713C13.9162 13.6249 13.9984 13.4263 13.9984 13.2193C13.9984 13.0122 13.9162 12.8136 13.7698 12.6672L13.7667 12.6625ZM1.55901 6.22046C1.55901 5.29775 1.83262 4.39575 2.34526 3.62854C2.85789 2.86133 3.58652 2.26336 4.439 1.91025C5.29148 1.55714 6.22953 1.46475 7.13452 1.64476C8.03951 1.82477 8.87079 2.26911 9.52325 2.92157C10.1757 3.57403 10.62 4.40531 10.8001 5.3103C10.9801 6.21529 10.8877 7.15334 10.5346 8.00582C10.1815 8.8583 9.58349 9.58692 8.81628 10.0996C8.04907 10.6122 7.14707 10.8858 6.22435 10.8858C4.98703 10.8858 3.80038 10.3943 2.92545 9.51936C2.05053 8.64444 1.55901 7.45779 1.55901 6.22046Z" fill="#3C434B"/>
</svg>
